<svg width="239" height="161" viewBox="0 0 239 161" fill="none" xmlns="http://www.w3.org/2000/svg">
<path d="M174.915 33.572H59.3168C58.7472 33.5721 58.201 33.8174 57.7979 34.2543C57.3949 34.6911 57.1681 35.2837 57.1674 35.9019V95.1218C57.168 95.7403 57.3947 96.3333 57.7977 96.7706C58.2006 97.2079 58.747 97.4539 59.3168 97.4546H174.915C175.485 97.4533 176.03 97.207 176.433 96.7697C176.835 96.3325 177.061 95.7399 177.062 95.1218V35.9019C177.061 35.2841 176.835 34.6919 176.432 34.2551C176.03 33.8183 175.484 33.5726 174.915 33.572Z" fill="#3F72AF"/>
<path d="M130.381 60.1024C129.812 60.103 129.266 60.3487 128.863 60.7854C128.461 61.2222 128.235 61.8145 128.234 62.4322V79.1602C128.234 79.7782 128.461 80.3708 128.863 80.8081C129.266 81.2453 129.811 81.4916 130.381 81.4929H163.062V60.1024H130.381Z" fill="#723FAF"/>
<path opacity="0.5" d="M215.897 82H130.103C129.546 81.9993 129.011 81.7464 128.617 81.2968C128.222 80.8472 128.001 80.2377 128 79.6019V62.398C128.001 61.7622 128.222 61.1527 128.617 60.7031C129.011 60.2536 129.546 60.0007 130.103 60H215.897C216.454 60.0007 216.989 60.2536 217.383 60.7031C217.778 61.1527 217.999 61.7622 218 62.398V79.6019C217.999 80.2377 217.778 80.8472 217.383 81.2968C216.989 81.7464 216.454 81.9993 215.897 82Z" fill="#723FAF"/>
<path d="M138.233 73.6494C140.158 73.6494 141.719 71.9554 141.719 69.8658C141.719 67.7761 140.158 66.0822 138.233 66.0822C136.307 66.0822 134.746 67.7761 134.746 69.8658C134.746 71.9554 136.307 73.6494 138.233 73.6494Z" fill="white"/>
<path d="M209.298 68.7664H146.303C146.028 68.7664 145.764 68.6477 145.569 68.4364C145.374 68.2251 145.265 67.9386 145.265 67.6397C145.265 67.3409 145.374 67.0543 145.569 66.8431C145.764 66.6318 146.028 66.5131 146.303 66.5131H209.298C209.574 66.5131 209.838 66.6318 210.032 66.8431C210.227 67.0543 210.337 67.3409 210.337 67.6397C210.337 67.9386 210.227 68.2251 210.032 68.4364C209.838 68.6477 209.574 68.7664 209.298 68.7664Z" fill="white"/>
<path d="M185.372 74.2185H146.303C146.028 74.2185 145.764 74.0998 145.569 73.8885C145.374 73.6772 145.265 73.3906 145.265 73.0918C145.265 72.7929 145.374 72.5064 145.569 72.295C145.764 72.0837 146.028 71.965 146.303 71.965H185.372C185.647 71.965 185.911 72.0837 186.106 72.295C186.301 72.5064 186.41 72.7929 186.41 73.0918C186.41 73.3906 186.301 73.6772 186.106 73.8885C185.911 74.0998 185.647 74.2185 185.372 74.2185Z" fill="white"/>
<path d="M40.3269 157.694L43.3441 157.693L44.7794 145.063H40.3263L40.3269 157.694Z" fill="#FFB6B6"/>
<path d="M39.5573 156.624L40.4066 156.624L43.7222 155.161L45.4992 156.624C46.5035 156.624 47.4668 157.057 48.177 157.828C48.8871 158.599 49.286 159.644 49.2861 160.734V160.867L39.5575 160.868L39.5573 156.624Z" fill="#2F2E41"/>
<path d="M13.0647 153.436L15.7652 154.897L22.2412 144.288L18.2558 142.132L13.0647 153.436Z" fill="#FFB6B6"/>
<path d="M12.8154 152.107L13.5755 152.518L17.1444 152.814L18.1334 154.983C19.0322 155.47 19.7164 156.324 20.0352 157.357C20.3539 158.391 20.2814 159.519 19.8334 160.495L19.7785 160.614L11.0714 155.905L12.8154 152.107Z" fill="#2F2E41"/>
<path d="M41.6637 100.332L22.4797 100.875L22.8133 111.014C22.8133 111.014 22.4797 113.729 23.1469 114.453C23.8142 115.178 24.1478 115.178 23.8142 116.445C23.4806 117.712 22.618 129.821 22.618 129.821C22.618 129.821 14.7443 144.93 15.078 145.292C15.4116 145.654 15.7453 145.292 15.4116 146.197C15.078 147.103 14.7443 146.741 15.078 147.103C15.3735 147.448 15.6519 147.811 15.9121 148.189H21.3497C21.3497 148.189 21.6538 146.378 21.6538 146.197C21.6538 146.016 21.9875 144.93 21.9875 144.749C21.9875 144.568 31.4878 133.644 31.4878 133.644L33.4896 115.54L38.3274 133.282C38.3274 133.282 38.3274 148.852 38.661 149.214C38.9946 149.576 38.9946 149.395 38.8278 150.119C38.661 150.843 37.9937 150.662 38.4942 151.205C38.9946 151.748 39.1615 150.843 38.9946 151.748L38.8278 152.654L45.2368 152.731C45.2368 152.731 45.9041 151.205 45.5705 150.662C45.2368 150.119 45.2569 150.267 45.6639 149.378C46.0709 148.49 46.2377 148.309 46.0709 148.127C45.9041 147.946 45.9041 146.983 45.9041 146.983C45.9041 146.983 43.4987 111.376 43.4987 110.833C43.4861 110.553 43.5336 110.274 43.6373 110.018V109.281L42.9983 106.669L41.6637 100.332Z" fill="#2F2E41"/>
<path d="M119.293 83.5999H91.324C90.7541 83.6005 90.2078 83.8465 89.8048 84.2838C89.4019 84.7212 89.1752 85.3141 89.1746 85.9326V97.4546H121.44V85.9326C121.44 85.3146 121.213 84.722 120.811 84.2847C120.409 83.8474 119.863 83.6011 119.293 83.5999Z" fill="#AF3F72"/>
<path opacity="0.5" d="M119.292 115.975H91.323C90.7534 115.974 90.2073 115.728 89.8045 115.291C89.4018 114.854 89.1752 114.261 89.1746 113.643V85.9314C89.1752 85.3133 89.4018 84.7206 89.8046 84.2835C90.2073 83.8464 90.7534 83.6005 91.323 83.5999H119.292C119.862 83.6005 120.408 83.8464 120.811 84.2835C121.214 84.7206 121.44 85.3133 121.441 85.9314V113.643C121.44 114.261 121.214 114.854 120.811 115.291C120.408 115.728 119.862 115.974 119.292 115.975Z" fill="#AF3F72"/>
<path d="M99.5636 94.735C101.489 94.735 103.05 93.041 103.05 90.9514C103.05 88.8617 101.489 87.1678 99.5636 87.1678C97.6381 87.1678 96.0772 88.8617 96.0772 90.9514C96.0772 93.041 97.6381 94.735 99.5636 94.735Z" fill="white"/>
<path d="M113.5 102.486H97.1154C96.8401 102.486 96.576 102.367 96.3813 102.156C96.1866 101.945 96.0773 101.658 96.0773 101.359C96.0773 101.06 96.1866 100.774 96.3813 100.563C96.576 100.351 96.8401 100.233 97.1154 100.233H113.5C113.775 100.233 114.039 100.351 114.234 100.563C114.428 100.774 114.538 101.06 114.538 101.359C114.538 101.658 114.428 101.945 114.234 102.156C114.039 102.367 113.775 102.486 113.5 102.486Z" fill="white"/>
<path d="M105.022 106.938H97.1154C96.8401 106.938 96.576 106.819 96.3813 106.608C96.1866 106.397 96.0772 106.11 96.0772 105.811C96.0772 105.512 96.1866 105.226 96.3813 105.015C96.576 104.803 96.8401 104.685 97.1154 104.685H105.022C105.297 104.685 105.561 104.803 105.756 105.015C105.95 105.226 106.06 105.512 106.06 105.811C106.06 106.11 105.95 106.397 105.756 106.608C105.561 106.819 105.297 106.938 105.022 106.938Z" fill="white"/>
<path d="M87.3324 65.983H59.363C58.7934 65.9823 58.2473 65.7364 57.8446 65.2993C57.4418 64.8622 57.2152 64.2695 57.2146 63.6513V35.9397C57.2152 35.3215 57.4418 34.7289 57.8446 34.2918C58.2473 33.8547 58.7934 33.6088 59.363 33.6081H87.3324C87.902 33.6088 88.4481 33.8547 88.8509 34.2918C89.2537 34.7289 89.4802 35.3215 89.4809 35.9397V63.6513C89.4802 64.2695 89.2537 64.8622 88.8509 65.2993C88.4481 65.7364 87.902 65.9823 87.3324 65.983Z" fill="#72AF3F"/>
<path d="M67.6037 49.0558C69.5292 49.0558 71.0901 47.3618 71.0901 45.2722C71.0901 43.1825 69.5292 41.4886 67.6037 41.4886C65.6783 41.4886 64.1174 43.1825 64.1174 45.2722C64.1174 47.3618 65.6783 49.0558 67.6037 49.0558Z" fill="#6C63FF"/>
<path d="M81.5399 53.6505H65.1556C64.8803 53.6505 64.6162 53.5318 64.4215 53.3205C64.2268 53.1092 64.1175 52.8226 64.1175 52.5238C64.1175 52.225 64.2268 51.9384 64.4215 51.7271C64.6162 51.5158 64.8803 51.3971 65.1556 51.3971H81.5399C81.8152 51.3971 82.0793 51.5158 82.274 51.7271C82.4686 51.9384 82.578 52.225 82.578 52.5238C82.578 52.8226 82.4686 53.1092 82.274 53.3205C82.0793 53.5318 81.8152 53.6505 81.5399 53.6505Z" fill="#6C63FF"/>
<path d="M73.0618 58.1026H65.1556C64.8803 58.1026 64.6162 57.9839 64.4215 57.7726C64.2268 57.5613 64.1174 57.2747 64.1174 56.9758C64.1174 56.677 64.2268 56.3904 64.4215 56.1791C64.6162 55.9678 64.8803 55.8491 65.1556 55.8491H73.0618C73.3372 55.8491 73.6013 55.9678 73.796 56.1791C73.9907 56.3904 74.1 56.677 74.1 56.9758C74.1 57.2747 73.9907 57.5613 73.796 57.7726C73.6013 57.9839 73.3372 58.1026 73.0618 58.1026Z" fill="#6C63FF"/>
<path opacity="0.5" d="M87.3324 65.983H59.363C58.7934 65.9823 58.2473 65.7364 57.8446 65.2993C57.4418 64.8622 57.2152 64.2695 57.2146 63.6513V35.9397C57.2152 35.3215 57.4418 34.7289 57.8446 34.2918C58.2473 33.8547 58.7934 33.6088 59.363 33.6081H87.3324C87.902 33.6088 88.4481 33.8547 88.8509 34.2918C89.2537 34.7289 89.4802 35.3215 89.4809 35.9397V63.6513C89.4802 64.2695 89.2537 64.8622 88.8509 65.2993C88.4481 65.7364 87.902 65.9823 87.3324 65.983Z" fill="#72AF3F"/>
<path d="M67.6037 49.0558C69.5292 49.0558 71.0901 47.3618 71.0901 45.2722C71.0901 43.1825 69.5292 41.4886 67.6037 41.4886C65.6783 41.4886 64.1174 43.1825 64.1174 45.2722C64.1174 47.3618 65.6783 49.0558 67.6037 49.0558Z" fill="white"/>
<path d="M81.5399 53.6505H65.1556C64.8803 53.6505 64.6162 53.5318 64.4215 53.3205C64.2268 53.1092 64.1175 52.8226 64.1175 52.5238C64.1175 52.225 64.2268 51.9384 64.4215 51.7271C64.6162 51.5158 64.8803 51.3971 65.1556 51.3971H81.5399C81.8152 51.3971 82.0793 51.5158 82.274 51.7271C82.4686 51.9384 82.578 52.225 82.578 52.5238C82.578 52.8226 82.4686 53.1092 82.274 53.3205C82.0793 53.5318 81.8152 53.6505 81.5399 53.6505Z" fill="white"/>
<path d="M73.0618 58.1026H65.1556C64.8803 58.1026 64.6162 57.9839 64.4215 57.7726C64.2268 57.5613 64.1174 57.2747 64.1174 56.9758C64.1174 56.677 64.2268 56.3904 64.4215 56.1791C64.6162 55.9678 64.8803 55.8491 65.1556 55.8491H73.0618C73.3372 55.8491 73.6013 55.9678 73.796 56.1791C73.9907 56.3904 74.1 56.677 74.1 56.9758C74.1 57.2747 73.9907 57.5613 73.796 57.7726C73.6013 57.9839 73.3372 58.1026 73.0618 58.1026Z" fill="white"/>
<path d="M58.7446 49.596C58.9745 50.2937 58.9426 51.0616 58.6557 51.734C58.3687 52.4064 57.8498 52.9295 57.2108 53.1905C57.0694 53.2478 56.9236 53.2914 56.7752 53.3208L55.2979 63.1372L51.8327 59.6648L53.7667 50.8754C53.6952 50.1348 53.895 49.3933 54.3232 48.8113C54.7513 48.2293 55.3732 47.8536 56.0546 47.7653C56.6278 47.694 57.2064 47.8363 57.6952 48.169C58.184 48.5017 58.5541 49.0049 58.7446 49.596Z" fill="#FFB6B6"/>
<path d="M33.1712 71.8387C33.1712 71.8387 35.8606 67.9822 45.6201 68.0879L51.1595 65.9036L52.4255 53.3092L56.8565 54.4541L56.2235 70.0254L46.7286 75.9792L34.2797 78.727L33.1712 71.8387Z" fill="#3F3D56"/>
<path d="M31.7423 63.8046C34.9413 63.8046 37.5347 60.9901 37.5347 57.5182C37.5347 54.0463 34.9413 51.2318 31.7423 51.2318C28.5432 51.2318 25.9498 54.0463 25.9498 57.5182C25.9498 60.9901 28.5432 63.8046 31.7423 63.8046Z" fill="#FFB6B6"/>
<path d="M21.9385 105.183C21.9282 105.183 21.918 105.181 21.9081 105.178C21.8011 105.146 21.7166 105.121 22.1026 101.499L22.5191 98.6362L22.1125 96.1085L21.4285 95.3661L22.5278 94.1732L23.4503 91.3294L21.8541 88.7625L20.0228 78.2648C19.708 76.4534 19.9526 74.5798 20.7188 72.9347C21.485 71.2895 22.7299 69.9647 24.2606 69.1656L26.3801 68.4935L27.1513 66.9586C27.3679 66.5276 27.6867 66.1673 28.0748 65.9151C28.4629 65.6629 28.9061 65.528 29.3585 65.5243L33.2399 65.4928C33.6315 65.4896 34.0184 65.5849 34.3704 65.7712C34.7224 65.9575 35.0298 66.2298 35.2686 66.5667L36.6227 68.4771L42.238 70.5473L41.307 92.3197C41.4549 92.4541 41.5755 92.6202 41.6611 92.8078C41.7468 92.9953 41.7957 93.2001 41.8047 93.4091C41.8137 93.6182 41.7826 93.827 41.7134 94.0224C41.6442 94.2178 41.5384 94.3954 41.4026 94.5441C41.3443 94.6081 41.2979 94.6601 41.2693 94.6945C41.1746 94.8404 41.3522 95.9301 41.5716 96.8553L41.8528 98.2721C41.7626 98.3421 41.6867 98.4317 41.6299 98.5351C41.5731 98.6386 41.5368 98.7537 41.5231 98.8731C41.5093 98.9926 41.5186 99.1139 41.5503 99.2293C41.5819 99.3446 41.6353 99.4517 41.7069 99.5436L42.0656 100.003C42.1365 100.58 41.9938 101.163 41.6689 101.626C41.344 102.088 40.8633 102.392 40.3323 102.47C35.2004 103.228 21.9653 105.183 21.9385 105.183Z" fill="#3F3D56"/>
<path d="M30.2604 63.4968C30.2357 63.4376 30.211 63.3783 30.1864 63.3188C30.1959 63.3191 30.2053 63.3206 30.2148 63.3208L30.2604 63.4968Z" fill="#2F2E41"/>
<path d="M25.7888 51.5177C26.0638 51.2361 26.4213 51.0684 26.7987 51.0438C27.1733 51.0569 27.5531 51.4241 27.4755 51.822C28.1635 50.5 29.2586 49.4832 30.5685 48.9501C31.8785 48.417 33.3196 48.4017 34.6389 48.9069C35.5698 49.2633 36.4828 49.9764 36.6966 51.0223C36.7174 51.2969 36.7929 51.5634 36.9178 51.8033C37.026 51.9315 37.1664 52.0226 37.3218 52.0653C37.4771 52.108 37.6406 52.1005 37.792 52.0436L37.8012 52.0407C37.853 52.0215 37.909 52.0196 37.9618 52.0353C38.0147 52.0509 38.0619 52.0835 38.0976 52.1286C38.1332 52.1738 38.1555 52.2295 38.1616 52.2886C38.1677 52.3477 38.1574 52.4074 38.1319 52.46L37.8685 52.9931C38.2005 53.0734 38.5455 53.0655 38.8741 52.9699C38.9287 52.9544 38.9864 52.9576 39.0393 52.979C39.0921 53.0004 39.1376 53.0391 39.1694 53.0897C39.2012 53.1403 39.2178 53.2003 39.2169 53.2615C39.2161 53.3228 39.1978 53.3822 39.1645 53.4317C38.7268 54.0817 38.1553 54.6118 37.4955 54.9799C36.8357 55.3479 36.1059 55.5438 35.3641 55.5518C34.3116 55.5448 33.2483 55.1512 32.2241 55.4138C31.8278 55.5154 31.4575 55.7121 31.1404 55.9892C30.8233 56.2664 30.5674 56.6171 30.3915 57.0156C30.2156 57.4141 30.1241 57.8503 30.1237 58.2922C30.1234 58.7341 30.2142 59.1704 30.3895 59.5692C30.0749 59.1957 29.4666 59.2842 29.1447 59.6504C28.9965 59.8464 28.8869 60.0734 28.8228 60.3173C28.7587 60.5612 28.7414 60.8167 28.772 61.0681C28.8578 61.8382 29.0685 62.5857 29.3942 63.2761C28.1497 63.2346 26.9468 62.7795 25.9482 61.9723C24.9496 61.1651 24.2033 60.0448 23.8101 58.7626C23.417 57.4804 23.3959 56.0981 23.7497 54.8025C24.1036 53.5069 24.8153 52.3603 25.7888 51.5177Z" fill="#2F2E41"/>
<path d="M24.195 114.199C23.6413 113.765 23.2666 113.113 23.1519 112.383C23.0372 111.652 23.1916 110.902 23.5818 110.294C23.6684 110.16 23.7657 110.034 23.8727 109.919L19.964 100.922L24.6322 101.652L27.6283 110.083C28.0741 110.65 28.2966 111.383 28.2477 112.126C28.1989 112.869 27.8826 113.561 27.3673 114.053C26.9323 114.464 26.3813 114.703 25.8048 114.729C25.2283 114.756 24.6606 114.569 24.195 114.199Z" fill="#FFB6B6"/>
<path d="M23.0113 109.287L16.7915 94.1158L16.7292 82.1336L18.6899 75.6614C18.9559 74.7833 19.3814 73.972 19.9412 73.2754C20.501 72.5788 21.1839 72.0111 21.9493 71.6058C22.7148 71.2005 23.5473 70.9659 24.3978 70.9157C25.2482 70.8656 26.0993 71.001 26.9007 71.3139L26.9439 71.3308L26.962 71.3766C27.0345 71.5601 28.6789 75.9745 23.8012 85.0556L22.8196 91.2694L26.264 105.513L23.0113 109.287Z" fill="#3F3D56"/>
</svg>
